<svg width="64" height="70" viewBox="0 0 64 70" fill="none" xmlns="http://www.w3.org/2000/svg">
<path d="M0.953125 12.7128C0.953125 6.09407 6.31869 0.728516 12.9374 0.728516H51.8865C58.5053 0.728516 63.8708 6.09408 63.8708 12.7128V51.6619C63.8708 61.59 55.8225 69.6384 45.8944 69.6384H18.9296C9.00147 69.6384 0.953125 61.59 0.953125 51.6619V12.7128Z" fill="#A3D4F7"/>
<rect x="0.953125" y="0.728516" width="62.9177" height="68.9099" rx="31.4589" fill="#A3D4F7"/>
<path d="M0.953125 12.7128C0.953125 6.09408 6.31869 0.728516 12.9374 0.728516H51.8865C58.5053 0.728516 63.8708 6.09408 63.8708 12.7128V13.0338C63.8708 13.0338 41.8369 18.8627 32.1573 18.8627C22.4776 18.8627 0.953125 13.0338 0.953125 13.0338V12.7128Z" fill="#F691CD"/>
<path d="M4.65234 13.4219C4.65234 13.4219 18.5313 18.8621 32.4102 18.8621C46.2891 18.8621 60.168 13.4219 60.168 13.4219" stroke="#53A5DF" stroke-width="2.24706" stroke-linecap="round" stroke-linejoin="round"/>
<path d="M46.3713 40.9268H21.4664C21.4664 40.9268 20.0014 53.8474 33.1864 53.8474C46.3713 53.8474 46.3713 40.9268 46.3713 40.9268Z" fill="white"/>
<path d="M33.1832 33.5947C25.0727 33.5947 18.5332 40.3489 18.5332 48.571C18.5332 56.8283 25.1052 63.5462 33.1832 63.5462C41.3723 63.5462 47.8331 56.752 47.8331 48.571C47.8331 40.3689 41.3526 33.5947 33.1832 33.5947ZM33.1832 36.7485C37.5065 36.7485 41.4367 39.1845 43.4403 43.1064C43.9864 44.1743 44.3627 45.2986 44.5668 46.4661C43.9222 46.6462 43.3242 46.8947 42.7988 47.2098C42.7911 47.2144 42.7835 47.2191 42.7758 47.2238C41.3413 48.0671 38.8534 48.0637 37.4292 47.2106C35.0613 45.791 31.3591 45.7832 28.9771 47.1873C28.9638 47.1948 28.9507 47.2024 28.9375 47.2102C27.5289 48.0536 25.0348 48.0809 23.5673 47.2098C23.0427 46.8952 22.4455 46.647 21.8019 46.4669C22.7758 40.9483 27.5086 36.7485 33.1832 36.7485ZM33.1832 60.3924C27.1985 60.3924 22.2613 55.7214 21.6766 49.7587C21.8338 49.8314 21.9198 49.8788 22.0079 49.9314C24.3744 51.3491 28.0753 51.357 30.4575 49.9551C30.4715 49.9473 30.4854 49.9392 30.4992 49.931C31.9289 49.0735 34.4379 49.0736 35.8691 49.9314C38.3647 51.4265 42.1595 51.3086 44.3828 49.9166C44.4788 49.8601 44.5828 49.8082 44.6901 49.7585C44.1164 55.7157 39.1979 60.3924 33.1832 60.3924Z" fill="#53A5DF"/>
<ellipse cx="24.3948" cy="9.34195" rx="2.92999" ry="2.87124" fill="white"/>
<ellipse cx="33.1839" cy="9.34195" rx="2.92999" ry="2.87124" fill="white"/>
<ellipse cx="41.9749" cy="9.34195" rx="2.92999" ry="2.87124" fill="white"/>
</svg>
