<svg id="Layer_1" data-name="Layer 1" xmlns="http://www.w3.org/2000/svg" viewBox="0 0 339.11 63.3"><defs><style>.cls-1,.cls-3,.cls-4,.cls-5{fill:#fff;}.cls-2,.cls-3,.cls-4,.cls-5{isolation:isolate;}.cls-3,.cls-4,.cls-5{font-size:55.75px;font-family:GTWalsheimPro-Bold, GT Walsheim Pro;font-weight:700;}.cls-3{letter-spacing:-0.06em;}.cls-4{letter-spacing:-0.04em;}.cls-5{letter-spacing:-0.05em;}</style></defs><path class="cls-1" d="M41.13,1.57l2.19.81c.13.07.27.15.41.21a29.67,29.67,0,0,1,6.69,3.85,31.49,31.49,0,0,1,8.47,40.5,30.64,30.64,0,0,1-10,10.77c-.09.06-.18.2-.29.13s0-.22,0-.33l1-9.63c.37-3.69.67-7.39,1.19-11.07a6.11,6.11,0,0,1,.57-2,1.35,1.35,0,0,1,1.76-.67,5.23,5.23,0,0,1,1.75,1.19,27.6,27.6,0,0,1,4,5l.28.43a.85.85,0,0,0,0-.5,68,68,0,0,0-3.39-10.53,24.09,24.09,0,0,0-2.94-5.33,7.14,7.14,0,0,0-2.62-2.29,1.63,1.63,0,0,0-2.25.49.75.75,0,0,0-.07.12,7.76,7.76,0,0,0-1,2.44A34.65,34.65,0,0,0,46,30.43c-.43,4.29-.55,8.6-.73,12.91-.13,2.83-.22,5.67-.57,8.5a11.12,11.12,0,0,1-.6,2.79c-.37.95-.9,1-1.55.25a7.94,7.94,0,0,1-1.06-1.74A43.82,43.82,0,0,1,38.69,45,106.17,106.17,0,0,1,35.6,20.18V18.1a.76.76,0,0,0-.69-.81.76.76,0,0,0-.74.44l-.11.19c-1,1.94-1.92,3.89-2.76,5.89A63.84,63.84,0,0,0,29,30.23a61,61,0,0,0-2.16,10,59.27,59.27,0,0,0-.41,9.13,5.46,5.46,0,0,1-.24,2.09c-.19.52-.51.62-1,.3a3.11,3.11,0,0,1-.33-.29,7.58,7.58,0,0,1-.91-1.2,38.28,38.28,0,0,1-2.83-5.61,130.63,130.63,0,0,1-7.21-22.6,22.91,22.91,0,0,1,0-11.57A14.37,14.37,0,0,1,18,3.74a12.09,12.09,0,0,1,4.68-2.48,29.9,29.9,0,0,1,17-.11A9,9,0,0,0,41.13,1.57Z" transform="translate(0.02 0.03)"/><path class="cls-1" d="M3.66,46.25A30.87,30.87,0,0,0,13.83,57.61a32.73,32.73,0,0,0,4.8,2.69l4.08,1.49A32.2,32.2,0,0,0,31.38,63a31.65,31.65,0,0,0,9.51-1.44c.26-.09.29-.17.16-.41-.27-.46-.52-.94-.75-1.42a98.75,98.75,0,0,1-3.84-9.5c-.94-2.56-1.8-5.15-2.9-7.65a8.62,8.62,0,0,0-1.14-2c-.52-.63-1-.55-1.26.21a6.71,6.71,0,0,0-.33,1.54c-.25,2.17-.24,4.35-.31,6.53a62.86,62.86,0,0,1-.54,8A9.8,9.8,0,0,1,29.07,60a2,2,0,0,1-2.34,1.13,5.43,5.43,0,0,1-2.35-1.34,21.59,21.59,0,0,1-3.48-4.09,75.24,75.24,0,0,1-5.68-9.9A162.44,162.44,0,0,1,4.14,16.66.38.38,0,0,0,4,16.28c-.07.11-.14.22-.2.33-.5.88-.88,1.82-1.34,2.73l-1,2.72c-.33,1.25-.69,2.5-.92,3.78A31.17,31.17,0,0,0,3.66,46.25Z" transform="translate(0.02 0.03)"/><g class="cls-2"><text class="cls-3" transform="translate(75.91 51.26)">w</text><text class="cls-4" transform="translate(117.89 51.26)">as</text><text class="cls-5" transform="translate(176.04 51.26)">h</text><text class="cls-4" transform="translate(207.15 51.26)">t</text><text class="cls-5" transform="translate(226.89 51.26)">r</text><text class="cls-4" transform="translate(246.68 51.26)">ack</text></g></svg>